<svg width="32" height="32" viewBox="0 0 32 32" fill="none" xmlns="http://www.w3.org/2000/svg">
<g clip-path="url(#clip0_662_591)">
<path d="M15.9996 31.8841C24.7724 31.8841 31.8841 24.7724 31.8841 15.9996C31.8841 7.22693 24.7724 0.115234 15.9996 0.115234C7.22693 0.115234 0.115234 7.22693 0.115234 15.9996C0.115234 24.7724 7.22693 31.8841 15.9996 31.8841Z" stroke="black" stroke-width="0.491538" stroke-miterlimit="10"/>
<path d="M2.03312 16.0004C1.81812 9.3933 6.76538 3.38493 13.2627 2.24636C14.1666 2.08685 15.0844 2.0094 15.9987 2.03368C14.1759 2.08338 12.3623 2.45905 10.6874 3.17686C5.56555 5.31991 2.12906 10.4567 2.03312 16.0004Z" fill="black"/>
<path d="M29.2327 18.5598C29.3495 21.3998 28.1543 24.2006 26.2112 26.2477C24.2751 28.3017 21.6003 29.6761 18.7949 29.9778C20.1751 29.7246 21.5044 29.2507 22.7296 28.5918C26.4158 26.6337 29.1148 22.7904 29.2339 18.5586L29.2327 18.5598Z" fill="black"/>
<path d="M18.374 25.6953C18.3786 25.7057 18.3821 25.715 18.3867 25.7254C18.3821 25.715 18.3775 25.7057 18.374 25.6953Z" fill="#FC0234"/>
<path d="M18.374 25.6953L18.3995 25.7554M18.374 25.6953C18.3786 25.7057 18.3821 25.715 18.3867 25.7254C18.3821 25.715 18.3775 25.7057 18.374 25.6953Z" stroke="black" stroke-width="0.491538" stroke-linejoin="round"/>
<path d="M24.2085 11.3241C18.6497 13.6729 12.2426 11.0883 9.86371 5.55034L9.83828 5.49023C9.84291 5.50064 9.84637 5.51104 9.851 5.52029C9.84637 5.50988 9.84175 5.50064 9.83828 5.49023L9.86371 5.55034C12.1767 11.1149 9.56433 17.5116 4.0056 19.8604C3.98595 19.8685 3.96514 19.8766 3.94434 19.8847V19.8858C3.96399 19.8777 3.98364 19.8685 4.00444 19.8593C9.56318 17.5105 15.9703 20.0951 18.348 25.6318L18.3735 25.6931C18.3688 25.6827 18.3654 25.6723 18.3607 25.663C18.3654 25.6734 18.37 25.6827 18.3735 25.6931L18.348 25.6318C16.0351 20.0673 18.6474 13.6717 24.2061 11.3229C24.2258 11.3148 24.2466 11.3067 24.2674 11.2986V11.2975C24.2478 11.3056 24.227 11.3148 24.2073 11.3241H24.2085Z" fill="#FC0234"/>
<path d="M9.86371 5.55034C12.2426 11.0883 18.6497 13.6729 24.2085 11.3241H24.2073C24.227 11.3148 24.2478 11.3056 24.2674 11.2975V11.2986C24.2466 11.3067 24.2258 11.3148 24.2061 11.3229C18.6474 13.6717 16.0351 20.0673 18.348 25.6318M9.86371 5.55034L9.83828 5.49023M9.86371 5.55034C12.1767 11.1149 9.56433 17.5116 4.0056 19.8604C3.98595 19.8685 3.96514 19.8766 3.94434 19.8847V19.8858C3.96399 19.8777 3.98364 19.8685 4.00444 19.8593C9.56318 17.5105 15.9703 20.0951 18.348 25.6318M9.83828 5.49023C9.84291 5.50064 9.84637 5.51104 9.851 5.52029C9.84637 5.50988 9.84175 5.50064 9.83828 5.49023ZM18.348 25.6318L18.3735 25.6931M18.3735 25.6931C18.3688 25.6827 18.3654 25.6723 18.3607 25.663C18.3654 25.6734 18.37 25.6827 18.3735 25.6931Z" stroke="black" stroke-width="0.491538" stroke-linejoin="round"/>
<path d="M9.83793 5.49175C9.83331 5.48134 9.82984 5.4721 9.82521 5.46169C9.82984 5.4721 9.83446 5.48134 9.83793 5.49175Z" fill="#FC0234"/>
<path d="M9.83793 5.49175L9.8125 5.43164M9.83793 5.49175C9.83331 5.48134 9.82984 5.4721 9.82521 5.46169C9.82984 5.4721 9.83446 5.48134 9.83793 5.49175Z" stroke="black" stroke-width="0.491538" stroke-linejoin="round"/>
<path d="M24.5039 21.4453C24.5051 21.4476 24.5062 21.4511 24.5086 21.4535C24.5074 21.4511 24.5051 21.4476 24.5039 21.4453Z" fill="#FC0234"/>
<path d="M24.5039 21.4453L24.5132 21.4628M24.5039 21.4453C24.5051 21.4476 24.5062 21.4511 24.5086 21.4535C24.5074 21.4511 24.5051 21.4476 24.5039 21.4453Z" stroke="black" stroke-width="0.491538" stroke-linejoin="round"/>
<path d="M25.9261 17.0975C24.339 17.9032 22.4006 17.2732 21.5868 15.6931L21.5776 15.6758C21.5776 15.6758 21.5799 15.6816 21.5822 15.685C21.5811 15.6827 21.5787 15.6792 21.5776 15.6769L21.5868 15.6943C22.3821 17.2836 21.744 19.2198 20.157 20.0243C20.1512 20.0278 20.1454 20.0301 20.1396 20.0324C20.1454 20.0289 20.1512 20.0266 20.157 20.0231C21.744 19.2175 23.6825 19.8474 24.4962 21.4276L24.5055 21.4449C24.5055 21.4449 24.5032 21.4391 24.5009 21.4356C24.502 21.4391 24.5043 21.4414 24.5055 21.4437L24.4962 21.4264C23.7021 19.837 24.339 17.9009 25.9261 17.0964C25.9319 17.0929 25.9377 17.0906 25.9434 17.0883C25.9377 17.0918 25.9319 17.0941 25.9261 17.0975Z" fill="#FC0234" stroke="black" stroke-width="0.491538" stroke-linejoin="round"/>
<path d="M21.5787 15.6757C21.5787 15.6757 21.5763 15.6699 21.574 15.6675C21.5752 15.6699 21.5775 15.6734 21.5787 15.6757Z" fill="#FC0234"/>
<path d="M21.5787 15.6757L21.5693 15.6582M21.5787 15.6757C21.5787 15.6757 21.5763 15.6699 21.574 15.6675C21.5752 15.6699 21.5775 15.6734 21.5787 15.6757Z" stroke="black" stroke-width="0.491538" stroke-linejoin="round"/>
</g>
<defs>
<clipPath id="clip0_662_591">
<rect width="32" height="32" fill="white"/>
</clipPath>
</defs>
</svg>
